<svg width="340" height="173" viewBox="0 0 340 173" fill="none" xmlns="http://www.w3.org/2000/svg">
<line x1="5" y1="16" x2="5" y2="125" stroke="white" stroke-width="10"/>
<line y1="14" x2="82" y2="14" stroke="white" stroke-width="10"/>
<line x1="77" y1="16" x2="77" y2="34" stroke="#FFFBFB" stroke-width="10"/>
<path d="M49.33 42.746H97.763V57.74H66.585V75.828H92.408V90.703H66.585V122H49.33V42.746ZM135.511 123.785C129.323 123.785 123.849 122.436 119.089 119.739C114.408 117.042 110.759 113.273 108.141 108.434C105.523 103.515 104.214 97.843 104.214 91.417C104.214 84.991 105.483 79.3583 108.022 74.519C110.64 69.6003 114.289 65.7923 118.97 63.095C123.73 60.3977 129.204 59.049 135.392 59.049C141.58 59.049 147.014 60.3977 151.695 63.095C156.455 65.713 160.104 69.4417 162.643 74.281C165.261 79.1203 166.57 84.7133 166.57 91.06C166.57 97.486 165.261 103.198 162.643 108.196C160.104 113.115 156.455 116.962 151.695 119.739C147.014 122.436 141.62 123.785 135.511 123.785ZM135.392 109.267C139.676 109.267 143.087 107.641 145.626 104.388C148.244 101.056 149.553 96.6927 149.553 91.298C149.553 85.9033 148.244 81.6193 145.626 78.446C143.087 75.1933 139.676 73.567 135.392 73.567C131.108 73.567 127.657 75.1933 125.039 78.446C122.5 81.6193 121.231 85.9033 121.231 91.298C121.231 96.6927 122.5 101.056 125.039 104.388C127.657 107.641 131.108 109.267 135.392 109.267ZM179.364 60.715H196.143V70.711H197.095C199.396 66.665 201.657 63.69 203.878 61.786C206.179 59.882 209.035 58.93 212.446 58.93C213.874 58.93 215.064 59.0887 216.016 59.406L214.231 77.494C212.169 76.9387 210.503 76.661 209.233 76.661C207.409 76.661 205.782 77.018 204.354 77.732C203.006 78.446 201.776 79.398 200.665 80.588C199.634 81.778 198.127 83.6027 196.143 86.062V122H179.364V60.715ZM253.006 123.785C242.851 123.785 234.958 121.088 229.325 115.693C223.772 110.298 220.995 102.682 220.995 92.845C220.995 86.181 222.304 80.3103 224.922 75.233C227.54 70.0763 231.229 66.1097 235.989 63.333C240.749 60.477 246.263 59.049 252.53 59.049C255.465 59.049 258.52 59.406 261.693 60.12C264.946 60.7547 267.445 61.5083 269.19 62.381L265.977 76.542C264.152 75.6693 262.129 74.995 259.908 74.519C257.766 73.9637 255.743 73.686 253.839 73.686C248.92 73.686 244.954 75.352 241.939 78.684C239.004 82.016 237.536 86.419 237.536 91.893C237.536 97.4463 239.043 101.73 242.058 104.745C245.152 107.76 249.515 109.267 255.148 109.267C258.877 109.267 262.883 108.553 267.167 107.125L269.666 120.691C264.509 122.754 258.956 123.785 253.006 123.785ZM298.772 123.785C292.425 123.785 287.387 121.088 283.659 115.693C279.93 110.298 278.066 102.96 278.066 93.678C278.066 82.4127 280.922 73.8447 286.634 67.974C292.346 62.024 300.557 59.049 311.267 59.049C317.296 59.049 324.357 60.001 332.449 61.905V122H316.503L316.86 112.242H316.384C314.321 115.971 311.782 118.827 308.768 120.81C305.832 122.793 302.5 123.785 298.772 123.785ZM302.342 109.148C304.801 109.148 307.221 107.839 309.601 105.221C311.981 102.603 314.202 99.1123 316.265 94.749V74.757C313.726 74.043 311.187 73.686 308.649 73.686C303.889 73.686 300.279 75.3123 297.82 78.565C295.44 81.8177 294.25 86.6173 294.25 92.964C294.25 97.962 294.964 101.929 296.392 104.864C297.82 107.72 299.803 109.148 302.342 109.148Z" fill="white"/>
</svg>
